<?xml version="1.0" standalone="no"?>
<!DOCTYPE svg PUBLIC "-//W3C//DTD SVG 20010904//EN"
 "http://www.w3.org/TR/2001/REC-SVG-20010904/DTD/svg10.dtd">
<svg version="1.0" xmlns="http://www.w3.org/2000/svg"
 width="3491.000000pt" height="3002.000000pt" viewBox="0 0 3491.000000 3002.000000"
 preserveAspectRatio="xMidYMid meet">

<g transform="translate(0.000000,3002.000000) scale(0.100000,-0.100000)"
fill="#000000" stroke="none">
<path d="M1 28483 c1 -846 4 -1528 6 -1516 10 53 108 97 158 71 13 -7 108 -64
211 -127 280 -169 373 -216 362 -178 -7 21 -274 230 -360 281 -233 138 -268
172 -268 258 0 60 10 80 54 107 55 34 99 28 222 -32 60 -30 127 -60 149 -67
89 -29 182 -83 543 -318 254 -165 320 -198 377 -187 57 12 65 16 65 36 0 45
-56 123 -202 276 -154 163 -194 197 -410 352 -119 85 -143 110 -159 164 -10
36 5 103 28 129 39 44 144 31 281 -33 111 -51 513 -316 687 -451 l140 -110 3
106 3 106 37 0 c79 0 132 63 97 116 -15 24 -22 26 -65 22 l-49 -5 19 36 c10
21 39 56 65 80 46 43 48 43 107 39 88 -6 91 -13 85 -174 -3 -83 -1 -136 5
-142 8 -8 60 -147 55 -147 -1 0 -20 -9 -42 -20 -79 -40 -108 -127 -61 -182 20
-24 30 -27 71 -25 26 1 72 13 101 26 l54 25 43 -47 c23 -26 74 -81 113 -122
39 -41 87 -96 107 -122 55 -73 102 -248 122 -448 7 -71 70 -327 111 -449 14
-42 43 -113 66 -159 38 -78 46 -87 152 -170 296 -235 1034 -776 1396 -1024 69
-47 202 -134 295 -193 195 -123 366 -241 689 -474 l228 -166 -1153 -3 -1154
-3 -39 43 c-34 38 -262 327 -278 353 -4 6 2 17 14 24 15 9 18 10 13 0 -6 -8
-4 -10 6 -4 32 20 58 49 52 58 -4 6 -1 7 6 3 9 -6 8 -13 -5 -27 -9 -10 -12
-19 -6 -19 16 0 32 34 32 70 0 38 -32 104 -62 124 -31 22 -17 31 82 55 80 19
86 19 97 3 51 -69 76 -76 116 -34 33 35 34 50 2 111 -37 74 -64 91 -133 84
-68 -6 -164 -49 -209 -94 -37 -36 -39 -45 -17 -77 15 -21 14 -22 -16 -22 -32
0 -91 -46 -102 -80 -3 -11 -12 -6 -35 20 -16 19 -65 75 -108 125 -70 80 -76
90 -59 100 10 5 31 22 47 37 29 28 30 54 5 86 -16 20 -68 14 -113 -13 l-43
-24 -79 92 c-44 51 -104 121 -133 155 -85 103 -135 128 -314 152 -171 24 -402
117 -576 231 -102 66 -339 295 -475 458 -90 108 -218 211 -325 262 -225 109
-270 130 -342 159 -106 43 -186 97 -273 184 -90 90 -110 137 -80 193 20 37 60
63 97 63 35 -1 124 -40 226 -103 70 -42 135 -70 260 -111 92 -31 181 -61 198
-67 17 -7 39 -9 49 -5 28 10 9 24 -133 99 -76 41 -154 92 -205 135 -45 38
-118 93 -162 122 -140 94 -292 217 -324 263 -8 11 -20 37 -27 56 -11 29 -13
-2477 -14 -13411 l0 -13448 17455 0 17455 0 0 15010 0 15010 -17455 0 -17455
0 1 -1537z m13496 1152 c325 -43 571 -131 810 -289 113 -74 273 -225 352 -331
l53 -70 -95 -7 c-53 -5 -295 -41 -539 -82 -463 -78 -484 -81 -873 -121 -132
-14 -283 -29 -335 -35 -253 -27 -472 -40 -686 -40 l-235 0 6 23 c52 171 148
366 240 489 192 255 454 412 775 463 118 18 384 18 527 0z m1331 -917 c49
-117 91 -305 112 -500 5 -53 10 -102 10 -108 0 -13 -10 -12 -220 25 -194 34
-206 35 -845 40 -319 3 -598 10 -620 15 -185 42 -439 63 -800 64 -265 0 -319
-2 -373 -17 -65 -17 -152 -21 -186 -8 -13 5 41 23 170 58 375 102 629 130
1234 133 227 2 430 18 620 50 63 10 138 22 165 25 61 8 95 36 95 79 -1 67 -41
86 -183 87 l-102 1 110 19 c478 84 614 104 742 108 l41 1 30 -72z m-2723 -254
c-29 -11 -199 -53 -203 -50 -2 3 -1 14 3 25 4 15 17 21 48 24 59 5 164 6 152
1z m210 -434 c88 -5 338 -9 556 -10 394 0 397 0 485 -25 49 -14 109 -33 133
-42 36 -14 40 -18 25 -24 -11 -4 -44 -8 -74 -8 -30 -1 -107 -10 -170 -21 -63
-11 -207 -31 -320 -44 -113 -14 -277 -40 -365 -59 -88 -20 -173 -38 -190 -41
-16 -3 -122 -13 -234 -21 -112 -8 -207 -17 -211 -20 -7 -4 -25 82 -45 211 -7
46 -5 49 76 95 49 27 60 29 114 24 33 -3 132 -10 220 -15z m2125 -21 c91 -5
221 -20 289 -32 l124 -22 -59 -31 -59 -31 -75 13 c-82 15 -389 31 -625 34
l-150 1 -62 35 c-35 19 -63 37 -63 39 0 9 518 5 680 -6z m-524 -260 c90 -47
324 -183 324 -189 -1 -3 -31 -25 -68 -50 -36 -25 -167 -144 -290 -265 -123
-121 -225 -221 -226 -223 -2 -1 -77 -18 -167 -37 -90 -19 -218 -46 -284 -61
-66 -14 -147 -32 -179 -39 l-59 -13 -111 101 c-61 55 -153 134 -205 176 -185
146 -216 160 -276 121 -16 -11 -33 -20 -36 -20 -3 0 -35 42 -71 93 -36 50 -93
122 -127 159 l-61 66 77 6 c158 12 322 35 458 66 77 17 232 42 345 55 113 13
259 34 325 45 119 21 305 36 481 39 85 1 97 -1 150 -30z m573 21 l46 0 -25
-20 c-14 -11 -48 -36 -76 -56 l-51 -35 -84 52 c-46 28 -88 56 -94 61 -7 7 31
9 114 4 68 -3 145 -6 170 -6z m379 -67 c70 -16 72 -17 72 -47 0 -17 -9 -77
-20 -134 -11 -56 -20 -121 -20 -142 0 -22 -2 -40 -5 -40 -7 0 -338 211 -353
225 -11 10 7 26 99 84 62 39 122 71 133 71 12 0 54 -7 94 -17z m-2922 -241
c60 -44 163 -166 239 -282 53 -82 100 -137 217 -251 l148 -147 -65 -11 c-113
-20 -336 -50 -422 -57 l-82 -7 -7 29 c-4 16 -12 36 -19 44 -7 8 -32 59 -54
113 -95 222 -142 412 -127 510 6 41 12 50 44 67 51 27 83 25 128 -8z m2597
-81 c78 -50 150 -96 160 -103 42 -31 -306 -123 -728 -192 l-40 -7 130 128
c113 112 302 263 327 263 4 0 72 -40 151 -89z m429 -326 c12 -67 8 -283 -7
-405 -7 -63 -23 -185 -34 -270 -11 -85 -25 -224 -31 -309 l-10 -153 27 -51
c49 -88 170 -146 313 -147 l55 -1 -80 -33 c-101 -41 -134 -58 -219 -113 -83
-54 -66 -56 -315 49 -194 82 -241 105 -336 163 -38 24 -99 55 -135 69 -165 65
-301 116 -327 122 -54 13 -84 36 -118 89 -38 59 -74 89 -150 128 -27 14 -74
50 -104 81 l-54 55 12 57 c30 133 110 296 155 315 12 5 104 31 207 58 102 27
266 74 365 104 99 31 272 81 383 111 111 31 239 72 284 90 45 19 89 33 97 32
9 -1 17 -17 22 -41z m-1685 -281 c-3 -3 -12 -4 -19 -1 -8 3 -5 6 6 6 11 1 17
-2 13 -5z m-57 -14 c-34 -11 -60 -11 -35 0 11 5 29 8 40 8 16 0 15 -2 -5 -8z
m-512 -180 c26 0 52 -23 184 -161 182 -191 486 -482 560 -537 29 -21 77 -52
106 -69 l52 -30 -267 -7 c-148 -4 -286 -10 -308 -14 l-40 -7 -35 70 c-53 105
-152 181 -387 296 -112 55 -183 95 -183 104 0 7 -5 36 -11 63 l-10 49 -55 7
c-106 12 -177 57 -224 139 -16 29 -30 57 -30 62 0 6 52 16 123 24 67 7 194 25
282 40 l160 27 27 -28 c17 -19 36 -28 56 -28z m652 47 c0 -4 -36 -112 -46
-137 -4 -11 -20 1 -60 45 l-54 60 68 16 c71 18 92 21 92 16z m-311 -97 c54
-64 40 -64 -30 0 -44 40 -50 49 -33 50 13 0 37 -19 63 -50z m4616 -404 c587
-74 1133 -234 1650 -485 362 -176 724 -420 920 -621 l50 -51 -45 7 c-305 45
-557 129 -1190 399 -481 205 -589 248 -803 321 -406 138 -727 197 -1082 197
-246 1 -334 -13 -754 -119 -162 -40 -315 -77 -340 -80 l-46 -6 -34 109 c-51
166 -59 150 99 200 208 66 419 110 662 138 169 19 732 14 913 -9z m-5076 -186
c99 -52 207 -134 227 -172 30 -58 19 -74 -94 -135 -57 -30 -105 -53 -106 -51
-1 2 -16 41 -34 88 -17 47 -51 135 -76 195 -25 61 -46 116 -46 122 0 16 28 6
129 -47z m3251 -165 c18 -58 30 -109 26 -113 -11 -10 -334 -14 -396 -5 l-55 9
86 57 c85 56 274 156 295 157 6 0 25 -47 44 -105z m-1913 -262 c110 -149 215
-272 322 -377 50 -49 90 -90 89 -90 -2 -1 -25 -20 -53 -42 -140 -114 -303
-203 -473 -262 -163 -55 -196 -53 -412 32 -368 144 -628 261 -632 285 -2 10
17 32 52 57 137 102 163 156 168 341 l4 132 51 11 c83 16 95 17 459 19 l346 1
79 -107z m-1097 -78 c0 -47 -6 -87 -14 -104 -15 -28 -80 -91 -95 -91 -10 0
-62 184 -53 188 4 1 39 20 77 42 39 22 73 40 78 40 4 0 7 -34 7 -75z m1648
-24 c72 -22 147 -43 168 -47 l39 -7 -75 -69 -75 -69 -25 33 c-13 18 -63 73
-110 122 -47 49 -78 86 -69 83 9 -3 75 -24 147 -46z m-1475 -640 c103 -45 191
-81 196 -81 5 0 11 -14 15 -30 15 -77 105 -160 212 -197 l49 -17 -93 -13
c-104 -14 -470 -86 -549 -109 -29 -8 -59 -24 -67 -35 -14 -21 -23 -22 -258
-24 -210 -1 -356 -12 -420 -31 -17 -5 -18 7 -18 148 l0 154 183 -1 c162 0 190
2 254 23 96 30 187 93 246 171 43 56 47 67 41 99 -5 28 -4 34 7 29 8 -3 98
-42 202 -86z m4576 -112 c48 -393 123 -585 273 -697 l53 -40 85 20 c59 14 137
21 257 25 197 6 313 -8 473 -59 297 -94 516 -221 1008 -582 332 -243 488 -349
632 -426 164 -89 164 -88 239 -51 121 61 261 212 561 606 345 453 470 584 601
630 l42 15 -5 -62 c-4 -48 -20 -95 -63 -193 -63 -140 -72 -192 -43 -237 20
-30 244 -175 390 -253 57 -30 177 -79 268 -111 178 -60 409 -151 530 -207 41
-19 110 -51 153 -71 139 -64 377 -196 597 -331 214 -131 507 -297 840 -476
l175 -94 -125 -2 c-257 -5 -1250 -43 -1380 -54 -171 -13 -488 -52 -695 -85
-88 -14 -233 -29 -322 -34 -90 -5 -198 -14 -241 -21 l-78 -12 -108 67 c-214
132 -402 216 -718 321 l-187 61 -138 -18 c-76 -11 -163 -25 -193 -33 l-55 -14
-40 38 c-144 136 -337 257 -570 356 -153 66 -495 178 -844 276 l-294 82 -18
-24 c-34 -44 -40 -80 -69 -416 -13 -157 -39 -239 -96 -302 -24 -27 -57 -54
-73 -60 l-29 -13 39 -101 c79 -206 221 -469 408 -760 35 -54 61 -100 59 -102
-3 -3 -104 15 -225 39 -238 48 -290 67 -501 184 l-104 57 6 50 c54 439 45 736
-31 980 -49 157 -115 267 -217 363 -107 99 -269 162 -420 162 -54 0 -55 0 -61
33 -36 214 -48 840 -20 1051 28 213 70 372 135 511 37 80 108 201 115 194 1
-2 13 -83 24 -180z m-5668 -279 c-1 -96 -3 -176 -4 -177 -2 -1 -74 -23 -160
-48 -87 -25 -207 -63 -266 -85 l-107 -40 -75 29 c-41 16 -184 67 -318 115
-134 48 -251 90 -259 95 -31 17 50 38 178 45 69 4 161 14 205 23 91 17 415
123 555 182 86 36 102 40 174 38 l79 -2 -2 -175z m2116 -91 c-35 -21 -162 -59
-241 -74 -119 -21 -252 -28 -363 -20 l-98 8 100 23 c55 12 145 34 200 48 86
21 123 25 260 25 116 0 155 -2 142 -10z m-3181 -231 c304 -108 316 -113 287
-125 -17 -7 -185 -80 -374 -164 -189 -83 -407 -176 -484 -207 -581 -229 -993
-299 -1405 -236 -126 19 -282 56 -273 65 11 9 166 46 228 54 45 6 53 4 74 -19
33 -35 72 -34 113 3 l33 29 315 5 c194 2 328 9 350 16 19 6 75 36 126 66 116
71 137 107 90 162 -23 27 -29 28 -137 33 l-112 5 174 87 c96 48 278 143 404
211 127 69 240 125 252 126 12 1 165 -49 339 -111z m1287 -279 c-11 -12 -29
-19 -39 -17 -16 3 -14 7 11 21 41 23 53 21 28 -4z m-205 -171 c3 -44 0 -50
-74 -145 -315 -402 -500 -840 -562 -1330 l-17 -140 -225 69 c-123 38 -226 71
-229 73 -2 2 7 48 19 102 124 538 473 1041 945 1363 113 76 139 78 143 8z
m-5951 -203 c40 -31 73 -57 73 -58 0 -2 -30 0 -67 5 -638 77 -776 91 -973 97
-171 6 -101 8 339 9 l554 2 74 -55z m-1863 -121 c6 -15 8 -15 26 1 19 17 50
18 527 12 430 -5 535 -9 683 -27 96 -11 348 -41 559 -65 l383 -44 54 -43 c30
-24 71 -55 92 -71 20 -15 54 -43 74 -61 44 -40 79 -46 252 -46 182 -1 430 -18
434 -30 2 -6 12 -19 21 -28 9 -9 23 -46 30 -82 7 -36 27 -109 46 -163 22 -66
29 -100 21 -102 -6 -2 -189 -33 -406 -69 -448 -74 -433 -70 -984 -271 -188
-68 -406 -143 -485 -166 -95 -28 -161 -54 -191 -75 l-46 -31 -354 314 c-195
174 -471 421 -613 550 -238 217 -256 237 -239 249 11 7 25 27 32 44 10 25 10
34 -4 55 -21 32 -67 33 -115 4 l-33 -20 -82 77 c-44 43 -88 84 -96 91 -12 11
23 13 197 13 186 0 212 -2 217 -16z m2984 -201 c-10 -2 -28 -2 -40 0 -13 2 -5
4 17 4 22 1 32 -1 23 -4z m365 -777 c115 -174 311 -380 637 -670 294 -262 503
-479 600 -624 23 -34 40 -50 50 -46 111 40 551 133 800 169 380 54 857 82
1155 67 94 -4 171 -7 173 -7 1 1 -9 44 -22 94 -45 167 -60 291 -61 493 0 102
3 189 6 192 3 3 95 -23 205 -57 109 -35 215 -68 234 -73 35 -10 35 -10 37 -69
19 -479 186 -965 421 -1225 27 -30 52 -53 55 -50 2 3 24 43 47 90 144 289 360
605 593 868 79 89 105 113 121 109 12 -2 106 -21 209 -42 155 -32 187 -42 183
-55 -2 -8 -23 -64 -46 -125 -89 -234 -128 -395 -137 -565 -7 -148 8 -239 56
-335 l36 -72 -39 -84 c-22 -46 -59 -129 -83 -184 -23 -55 -43 -93 -43 -84 0 8
-11 26 -24 38 -20 19 -28 21 -45 12 -50 -27 -70 -141 -31 -176 11 -10 28 -15
40 -12 11 3 20 4 20 4 0 -1 -9 -45 -20 -97 -36 -173 -22 -347 36 -461 14 -28
23 -53 21 -55 -4 -5 -457 51 -630 77 l-77 11 -98 112 c-181 205 -263 314 -341
451 -94 168 -140 323 -150 510 l-6 119 -50 38 c-106 80 -283 152 -475 193
-280 59 -314 60 -1264 57 l-868 -3 -39 25 c-47 32 -140 111 -329 281 -141 127
-258 224 -311 259 -25 16 -38 16 -195 2 -93 -8 -206 -17 -252 -20 l-83 -5 40
46 c35 39 41 53 41 89 0 46 -25 84 -54 84 -39 0 -80 -94 -74 -170 l3 -48 -180
-6 c-99 -3 -326 -10 -505 -16 -220 -7 -351 -15 -405 -26 -145 -29 -341 5 -520
90 -121 57 -167 89 -298 209 l-108 100 42 35 c46 40 60 67 48 98 -7 19 -2 23
54 40 34 10 197 67 362 127 575 209 578 210 1035 287 223 38 414 69 426 69 16
1 35 -21 77 -83z m5660 -320 l-26 -74 -43 36 c-24 20 -41 39 -36 44 10 10 115
68 124 68 4 0 -5 -33 -19 -74z m-166 -158 l72 -73 -26 -60 c-14 -33 -26 -61
-28 -63 -2 -2 -236 45 -314 63 -23 6 -23 6 -5 27 24 26 214 178 223 178 3 0
39 -33 78 -72z m12394 -137 c162 -85 320 -168 352 -186 l58 -32 -63 -12 c-305
-58 -521 -103 -798 -167 -561 -130 -754 -168 -995 -194 -117 -12 -185 -25
-218 -39 -27 -12 -56 -21 -65 -21 -25 0 -616 199 -757 255 -143 56 -374 166
-360 171 6 1 120 23 255 48 135 25 344 71 465 102 121 30 254 62 295 69 102
20 592 78 1005 121 187 19 372 41 410 48 51 9 77 10 96 2 14 -6 158 -80 320
-165z m-2092 95 c-4 -4 -244 -65 -334 -85 -27 -6 -184 -36 -349 -66 l-298 -54
-108 62 c-60 34 -108 63 -106 64 1 1 46 9 101 17 63 10 245 19 494 26 343 9
536 22 550 36 2 2 16 4 29 4 14 0 23 -2 21 -4z m-7419 -386 c19 -6 47 -16 62
-22 l28 -10 -52 -47 c-151 -134 -253 -232 -356 -343 -63 -68 -121 -124 -129
-126 -8 -2 -19 1 -26 6 -7 6 -39 21 -72 35 -33 14 -116 49 -185 79 -69 30
-176 74 -238 98 -62 24 -111 48 -109 53 5 16 210 122 333 172 129 53 249 90
354 110 89 17 336 14 390 -5z m10855 -392 c72 -33 166 -71 210 -85 106 -33
305 -105 545 -196 275 -105 447 -164 580 -198 196 -51 309 -116 660 -383 69
-53 165 -119 214 -148 62 -36 99 -66 122 -97 29 -41 91 -169 108 -227 l7 -21
-83 18 c-70 16 -574 115 -1038 204 -109 21 -341 55 -376 55 -9 0 -13 35 -16
121 -3 118 -4 121 -31 145 -28 24 -30 24 -248 24 l-220 0 8 23 c4 12 8 58 8
103 0 73 -3 87 -39 160 -45 91 -135 187 -210 223 -50 25 -76 62 -76 109 0 34
-57 92 -90 92 -57 0 -66 -72 -16 -127 51 -58 59 -77 46 -121 -22 -80 -4 -247
35 -322 8 -16 36 -54 60 -85 l45 -55 -150 0 -150 0 20 33 c28 44 26 120 -2
177 -18 36 -38 54 -98 90 -77 47 -86 58 -133 171 -10 24 -34 48 -71 73 -31 21
-68 49 -82 63 -23 23 -27 24 -47 10 -20 -14 -22 -21 -18 -98 4 -102 28 -165
82 -214 30 -27 48 -35 77 -35 l37 0 1 -57 c0 -65 27 -128 77 -180 l30 -32
-124 6 c-102 5 -134 10 -179 31 -290 129 -541 215 -973 331 -103 28 -189 51
-192 51 -3 0 -5 9 -5 19 0 10 -9 29 -19 42 -16 20 -23 22 -38 13 -10 -7 -17
-21 -16 -32 3 -20 1 -21 -45 -6 -26 9 -63 19 -82 23 -19 5 -83 21 -142 37
l-106 28 -4 38 c-3 34 -2 37 19 32 51 -13 68 51 26 98 -37 41 -92 6 -78 -50
l7 -27 -24 23 c-14 12 -36 22 -51 22 -23 0 -26 -5 -33 -45 -7 -48 -14 -54 -34
-31 -6 9 -27 14 -48 14 -20 -1 -120 23 -220 52 l-184 55 96 12 c53 6 143 21
200 32 126 25 119 25 111 0 -15 -47 40 -109 78 -87 25 14 21 64 -7 93 l-24 24
76 16 c94 21 449 101 667 151 88 20 318 67 510 104 l350 67 290 -145 c160 -80
349 -171 420 -204z m-8605 286 c78 -45 230 -116 295 -137 28 -9 179 -41 336
-73 l286 -56 79 -132 c99 -165 207 -377 266 -526 51 -128 101 -290 92 -299 -9
-9 -667 -12 -804 -4 l-125 8 -15 66 -15 65 -95 -12 c-52 -7 -156 -24 -230 -37
-74 -14 -164 -28 -200 -32 -128 -12 -270 28 -362 105 l-38 31 49 62 c140 179
293 540 377 890 15 64 31 117 36 117 4 0 35 -16 68 -36z m-3415 -368 c52 -38
93 -71 91 -73 -4 -4 -259 87 -269 97 -10 9 53 51 70 47 7 -1 55 -33 108 -71z
m-268 -111 c254 -96 630 -224 700 -239 18 -4 35 -11 37 -15 3 -4 -54 -81 -126
-171 -145 -183 -161 -204 -366 -475 -145 -191 -160 -208 -173 -199 -5 2 -6 -4
-4 -15 4 -22 -19 -46 -35 -36 -5 3 -10 -1 -10 -9 0 -9 -4 -16 -10 -16 -5 0 -9
5 -7 11 1 6 -4 14 -12 16 -9 4 -11 0 -6 -15 8 -27 -12 -65 -30 -58 -7 2 -19
-3 -27 -12 -12 -16 -11 -16 6 -2 17 13 19 13 14 0 -3 -8 -15 -15 -27 -14 -13
0 -21 -5 -21 -15 0 -15 -41 -41 -64 -41 -5 0 -27 -18 -48 -41 -21 -22 -42 -38
-46 -35 -13 8 -52 -23 -52 -40 0 -8 -9 -14 -21 -14 -11 0 -38 -18 -60 -40 -22
-22 -45 -40 -52 -40 -7 0 -24 -13 -37 -30 -14 -16 -35 -29 -47 -30 -13 0 -23
-4 -23 -9 0 -5 -9 -12 -19 -16 -13 -4 -18 -12 -14 -22 5 -12 1 -14 -17 -8 -12
4 -20 3 -17 -1 3 -5 -7 -10 -22 -11 -25 -2 -27 1 -23 28 8 57 -34 118 -72 103
-18 -7 -31 -62 -24 -99 5 -24 4 -25 -55 -25 -34 0 -109 5 -167 12 l-105 11 3
38 c8 75 -38 159 -85 159 -32 0 -61 -51 -69 -124 l-7 -59 -66 7 c-36 3 -120
11 -186 17 -66 5 -121 11 -122 13 -5 5 77 127 156 233 63 86 80 103 103 103
32 0 56 30 64 81 17 106 681 760 1104 1088 57 44 108 81 112 81 4 0 38 -11 75
-25z m801 -61 c40 -19 70 -39 67 -44 -4 -7 -103 13 -109 22 -26 40 -36 58 -33
58 2 0 36 -16 75 -36z m12262 -744 c0 -48 -1 -50 -28 -50 -75 0 -637 83 -651
96 -2 2 149 4 337 4 l342 0 0 -50z m-670 -119 c85 -17 268 -44 405 -62 138
-17 252 -33 255 -35 24 -24 -254 -173 -438 -235 -117 -39 -124 -40 -142 -24
-18 16 -159 220 -233 336 -26 42 -31 56 -19 53 10 -2 87 -17 172 -33z m-7308
-6 c13 -49 38 -285 38 -359 0 -67 1 -69 46 -119 25 -28 63 -81 86 -119 39 -67
142 -287 136 -293 -2 -1 -208 -8 -458 -14 -250 -6 -472 -14 -493 -16 l-38 -5
72 92 c43 57 95 141 132 216 l61 124 -75 71 c-238 226 -320 309 -362 368 -26
37 -47 69 -47 73 0 4 712 13 879 11 8 0 18 -13 23 -30z m8294 -130 c60 -8 169
-26 242 -40 72 -14 189 -36 260 -49 725 -139 898 -178 896 -201 0 -10 -217
-94 -424 -164 -178 -60 -162 -61 -199 14 -30 61 -37 68 -129 125 -53 33 -156
89 -227 125 -107 54 -139 66 -182 67 -83 2 -127 -38 -125 -117 1 -70 27 -113
138 -225 l105 -108 -38 -6 c-21 -4 -100 -27 -175 -52 -75 -24 -146 -44 -158
-44 -12 0 -40 13 -63 29 -140 95 -311 167 -482 201 -105 20 -215 65 -198 80 5
4 44 19 88 34 101 35 385 181 435 223 21 18 46 53 56 78 22 53 18 52 180 30z
m1434 -475 c0 -18 -6 -20 -57 -19 l-58 0 45 19 c59 24 70 24 70 0z m-16785
-141 c132 -17 380 -46 550 -65 171 -19 342 -39 380 -45 39 -6 83 -10 98 -10
39 2 68 -15 60 -36 -6 -15 -7 -14 -14 3 -7 17 -8 17 -8 2 -1 -21 -11 -23 -31
-5 -8 6 -11 8 -7 3 4 -5 -2 -16 -14 -24 -19 -13 -19 -15 -2 -28 17 -12 17 -13
1 -14 -22 0 -23 -29 -4 -55 13 -19 15 -18 53 7 21 14 63 38 91 52 l53 27 -6
-43 c-2 -24 -8 -60 -11 -82 -5 -27 -2 -41 7 -47 23 -14 88 -10 114 7 23 15 24
14 40 -15 10 -21 23 -31 38 -31 46 0 65 33 74 125 7 76 19 92 29 38 4 -21 11
-43 15 -49 5 -6 4 -32 -2 -60 -6 -27 -13 -61 -16 -76 -4 -20 -14 -30 -41 -39
-78 -26 -153 -127 -122 -164 14 -17 67 -20 105 -5 31 12 31 14 -6 -111 -18
-64 -20 -66 -61 -79 -69 -20 -111 -45 -155 -93 -69 -75 -67 -155 5 -218 49
-43 53 -57 29 -104 l-20 -39 -21 26 c-14 18 -38 29 -76 37 -48 10 -56 10 -67
-6 -19 -25 -15 -107 11 -208 l23 -90 -30 -45 c-55 -81 -118 -160 -128 -160 -5
0 -9 41 -9 93 0 73 4 101 20 132 23 45 27 144 9 210 -13 46 -71 108 -96 103
-9 -2 -24 -15 -32 -30 -13 -23 -13 -34 -2 -77 12 -49 12 -52 -11 -70 l-23 -19
-7 41 c-18 118 -74 172 -114 111 -16 -24 -16 -29 11 -102 15 -42 31 -108 35
-147 5 -49 17 -88 39 -129 34 -64 43 -133 15 -122 -9 3 -20 6 -25 6 -6 0 -8 4
-5 9 3 5 -4 30 -15 56 -16 35 -22 75 -25 154 -5 115 -27 181 -71 209 -19 12
-24 11 -42 -7 -17 -17 -21 -34 -21 -85 0 -56 5 -74 40 -140 32 -59 40 -86 40
-126 0 -48 -1 -51 -22 -45 -13 4 -30 9 -39 11 -10 3 -29 46 -54 120 -30 92
-46 125 -75 155 -20 22 -42 39 -48 39 -14 0 -42 -29 -42 -44 0 -25 -21 -35
-47 -23 -23 10 -28 8 -48 -16 l-22 -28 -17 44 c-20 53 -39 64 -74 41 -22 -15
-24 -20 -18 -65 4 -27 9 -57 13 -67 3 -11 0 -9 -11 6 -19 24 -45 29 -63 11 -9
-9 -24 -6 -60 12 -46 23 -55 35 -85 104 -15 34 -50 44 -75 23 -14 -11 -15 -10
-10 7 21 69 78 315 93 395 23 135 24 352 1 459 -33 155 -115 325 -228 476 -27
36 -49 69 -49 72 0 3 21 3 48 -1 26 -3 155 -20 287 -37z m16834 -66 c19 -77
43 -194 40 -197 -2 -2 -63 -7 -136 -11 l-131 -7 -55 113 -55 114 -1 -75 c-1
-41 -6 -92 -12 -113 l-10 -38 -96 3 -96 3 -34 100 c-18 54 -35 107 -39 117 -5
16 8 18 178 21 101 1 240 3 310 5 l127 2 10 -37z m-15521 -85 c-3 -7 -18 -14
-34 -16 -28 -2 -28 -2 -10 13 24 18 49 20 44 3z m14517 -17 c3 -11 6 -51 6
-89 1 -167 -118 -239 -196 -119 -15 23 -43 61 -61 83 l-33 41 62 17 c34 10 94
32 132 51 84 40 82 40 90 16z m-14779 -13 c4 -7 4 -10 -1 -6 -4 4 -14 3 -22
-3 -8 -8 -13 -8 -13 -1 0 6 6 13 13 15 6 3 13 6 14 6 1 1 5 -5 9 -11z m6428
-195 c25 -43 53 -88 62 -100 16 -23 16 -23 -15 -23 -25 0 -34 -6 -42 -26 -11
-30 -4 -60 19 -86 17 -21 61 -24 66 -5 2 6 8 26 13 44 9 25 8 36 -5 54 -14 21
-14 22 2 16 10 -4 27 -7 39 -7 16 0 18 -3 9 -9 -11 -6 -10 -11 3 -25 21 -20
74 -21 89 0 10 13 24 12 131 -11 148 -32 267 -64 280 -76 9 -9 -5 -13 -32 -10
-7 1 -13 -5 -13 -12 0 -21 27 -40 42 -31 7 4 25 7 41 6 25 -2 29 1 24 17 -4
16 -1 18 17 12 21 -8 21 -12 24 -299 2 -284 2 -291 -18 -297 -26 -8 -26 -41 0
-55 20 -11 28 -50 11 -50 -5 0 -52 9 -104 20 -232 47 -529 52 -761 11 -198
-35 -435 -125 -563 -213 -31 -21 -49 -27 -68 -22 -31 8 -32 25 -5 123 84 301
375 544 745 621 28 5 60 12 72 15 l22 5 -22 38 c-83 141 -273 230 -619 288
l-106 18 -199 -96 c-456 -221 -846 -347 -1953 -632 -162 -41 -375 -97 -472
-124 -176 -47 -178 -48 -275 -40 -54 5 -235 12 -403 16 l-305 7 290 72 c160
40 435 106 612 148 899 209 1306 332 1660 500 134 64 275 146 363 211 l65 49
515 16 c283 9 561 17 616 17 l101 2 47 -77z m9440 -59 c11 -29 6 -93 -10 -134
-17 -42 -44 -62 -101 -75 -27 -5 -37 -2 -56 19 -14 14 -33 48 -45 75 l-20 48
53 32 c84 51 167 67 179 35z m-8469 -360 c17 -11 35 -14 58 -10 22 4 40 1 52
-9 11 -8 38 -15 60 -15 30 0 64 -13 130 -51 442 -253 685 -555 750 -933 16
-95 20 -291 6 -300 -4 -3 -27 2 -50 11 l-42 16 32 33 c34 35 36 67 3 72 -15 2
-33 -10 -58 -39 l-36 -42 -110 34 -109 34 -46 72 c-61 96 -177 218 -284 299
-80 60 -365 214 -397 214 -12 0 -14 44 -14 245 l0 246 29 -16 c30 -15 59 -11
73 9 17 25 5 51 -47 101 -42 41 -55 61 -54 82 l1 28 14 -32 c7 -18 25 -40 39
-49z m-8563 -799 c35 -89 41 -106 52 -156 3 -15 24 -48 47 -75 l40 -49 -6 -77
c-6 -74 -5 -79 19 -103 29 -29 43 -31 75 -9 21 15 22 21 16 87 -4 40 -14 89
-21 110 -15 43 -12 57 15 57 21 0 46 26 56 59 7 23 8 23 20 7 8 -10 16 -41 20
-69 4 -29 11 -68 16 -87 9 -36 -13 -150 -77 -385 -51 -190 -147 -332 -267
-395 -56 -30 -53 -33 -98 90 -52 145 -70 239 -76 423 -4 115 -2 167 5 167 27
0 44 33 37 76 -4 26 -2 45 5 49 21 13 38 -16 45 -79 7 -70 24 -102 47 -94 13
5 14 27 10 135 -4 113 -7 133 -29 171 -21 37 -28 43 -49 38 -13 -4 -24 -3 -24
1 0 5 17 76 37 158 l37 150 7 -55 c3 -30 22 -95 41 -145z m3333 125 c171 -5
321 -10 335 -10 14 0 -51 -29 -145 -64 -463 -171 -557 -231 -906 -576 -297
-293 -403 -381 -573 -475 -56 -30 -104 -56 -108 -57 -4 -2 0 -59 8 -128 9 -74
16 -212 17 -335 1 -233 -12 -339 -61 -492 l-28 -88 -109 -3 c-132 -4 -421 13
-583 34 -388 50 -762 170 -900 289 l-35 31 65 110 c246 407 568 751 978 1044
357 255 850 496 1400 685 163 56 166 56 250 50 47 -3 225 -10 395 -15z m5000
-277 c8 -3 15 -16 15 -29 0 -20 -4 -23 -22 -19 -13 3 -92 12 -177 20 -84 7
-155 16 -158 19 -3 2 22 7 54 11 32 4 63 8 68 11 13 5 202 -5 220 -13z m308
-79 c59 -21 106 -39 104 -40 -2 -2 -56 7 -120 19 -96 18 -117 25 -117 40 0 24
10 22 133 -19z m-578 -100 c99 -8 202 -18 228 -22 l48 -7 3 -223 c3 -213 2
-224 -17 -237 -14 -10 -26 -11 -38 -5 -24 14 -29 12 -23 -5 4 -9 0 -15 -9 -15
-8 0 -17 5 -19 12 -3 8 -11 5 -23 -9 -10 -12 -22 -20 -27 -17 -5 3 -8 2 -6 -3
1 -4 -2 -32 -6 -61 l-8 -52 -31 22 c-17 12 -27 17 -23 10 4 -7 2 -12 -5 -12
-7 0 -2 -11 11 -25 13 -14 34 -25 46 -25 13 0 54 11 92 25 38 14 75 25 81 25
18 0 15 -494 -3 -509 -11 -9 -15 -6 -20 13 -4 17 -11 23 -21 20 -9 -4 -13 -14
-9 -28 4 -16 -3 -27 -25 -44 -34 -25 -41 -61 -16 -82 8 -7 35 -15 60 -18 l45
-5 0 -82 c0 -80 -1 -84 -30 -109 -44 -36 -62 -74 -48 -100 14 -27 28 -36 56
-36 20 0 22 -4 22 -64 l0 -63 -127 -56 c-71 -30 -252 -107 -403 -170 -151 -64
-329 -138 -394 -166 -65 -28 -120 -50 -122 -49 -1 2 4 34 12 71 8 38 21 125
29 195 9 70 18 136 20 147 5 23 12 159 25 520 25 695 98 1011 281 1219 l41 47
87 -6 c47 -3 167 -13 266 -21z m530 -80 c12 4 147 -24 400 -83 50 -12 143 -38
208 -58 96 -30 117 -39 111 -52 -23 -54 -11 -101 26 -101 10 0 41 15 69 34
l50 34 71 -26 c54 -21 70 -31 71 -47 2 -53 135 -266 261 -415 l61 -73 -19 -35
c-38 -71 -130 -137 -344 -249 -113 -59 -230 -118 -260 -132 -30 -14 -173 -85
-318 -159 -145 -73 -303 -149 -350 -169 -48 -19 -91 -39 -96 -44 -20 -19 -26
-8 -26 47 0 61 13 94 36 94 8 0 12 5 9 10 -3 6 -1 10 6 10 8 0 7 5 -2 18 -13
15 -12 16 3 4 15 -12 21 -10 42 13 21 23 31 27 58 21 20 -4 28 -3 19 3 -15 10
3 26 19 16 6 -3 7 1 4 9 -3 9 -16 16 -28 17 -19 1 -19 2 4 9 14 4 18 8 9 9
-23 1 -80 -20 -75 -28 3 -4 -20 -8 -50 -9 l-54 -2 0 106 0 107 21 -27 c18 -23
27 -26 85 -26 80 0 117 15 194 79 34 28 63 51 66 51 2 0 23 -14 46 -30 49 -36
153 -70 212 -70 34 0 51 7 84 36 36 31 42 41 42 75 0 22 4 38 9 34 5 -3 12 -1
16 5 3 5 2 10 -3 10 -17 0 -21 28 -6 34 9 3 12 1 9 -4 -3 -6 1 -10 11 -10 11
0 15 6 11 20 -4 15 0 19 22 18 37 0 59 6 74 22 10 11 8 12 -8 5 -11 -4 -36 -9
-56 -11 -19 -2 -47 -8 -62 -13 -23 -9 -29 -6 -56 27 -16 21 -31 53 -33 72 l-3
35 -55 0 c-30 0 -63 5 -72 11 -16 9 -13 16 27 69 47 64 51 75 35 106 -13 24
-31 24 -80 -1 -53 -27 -63 -26 -57 6 7 39 -25 67 -66 59 -42 -9 -132 -70 -164
-112 -19 -25 -24 -40 -19 -63 4 -24 -1 -37 -25 -65 -25 -28 -31 -44 -32 -86
-2 -48 1 -54 36 -84 31 -27 35 -33 20 -38 -10 -3 -44 -15 -75 -26 -51 -19 -63
-20 -103 -9 l-45 12 0 277 c0 236 2 278 15 289 23 19 28 7 15 -41 -11 -41 -11
-43 19 -66 19 -15 31 -34 31 -48 0 -33 22 -47 75 -47 61 0 85 18 142 104 27
41 68 87 93 105 102 73 100 71 100 119 0 38 -3 44 -25 50 -13 3 -46 -1 -72 -9
-26 -9 -73 -21 -104 -27 -31 -6 -83 -27 -115 -46 -88 -53 -92 -55 -99 -45 -3
6 9 26 27 46 28 33 32 43 32 103 1 65 0 67 -25 70 -15 2 -33 -3 -40 -10 -8 -7
-25 -13 -39 -13 l-24 0 -1 111 0 111 34 -14 c18 -8 39 -12 46 -9z m-354 -487
c-8 -8 -11 -7 -11 6 0 10 -5 14 -15 11 -8 -4 -15 -1 -15 6 0 6 5 8 10 5 6 -3
10 -1 10 5 0 6 7 4 16 -5 13 -12 14 -19 5 -28z m46 27 c-3 -3 -12 -4 -19 -1
-8 3 -5 6 6 6 11 1 17 -2 13 -5z m1923 -640 c0 -6 -11 -19 -25 -28 -21 -14
-25 -24 -25 -67 0 -96 51 -158 147 -180 46 -11 56 -10 92 8 l41 20 40 -52 41
-53 137 -6 c192 -9 456 -32 590 -52 106 -17 112 -19 88 -31 -36 -19 -38 -63
-6 -98 26 -28 38 -66 30 -95 -26 -101 120 -240 252 -240 49 0 96 41 104 90 12
72 -11 118 -100 202 -44 43 -108 92 -141 109 l-60 31 45 -7 c161 -26 476 -117
702 -203 133 -51 147 -58 142 -77 -19 -58 22 -137 89 -172 17 -8 52 -39 79
-68 26 -29 61 -59 77 -66 16 -8 47 -37 69 -64 35 -45 82 -94 140 -149 11 -10
24 -22 28 -27 5 -5 25 -20 44 -32 19 -13 41 -35 48 -50 7 -15 17 -27 23 -27
10 0 42 -31 158 -153 l75 -77 -57 19 -56 20 -30 -47 c-49 -78 -154 -304 -249
-537 -118 -289 -163 -390 -230 -508 -110 -193 -228 -313 -362 -368 -66 -27
-203 -32 -292 -10 l-57 14 47 41 c96 82 277 264 350 351 188 224 315 471 361
703 28 137 34 251 22 370 -13 122 -20 154 -32 146 -17 -10 -101 -185 -220
-459 -109 -250 -119 -270 -141 -267 -22 3 -22 3 -6 -14 16 -16 14 -23 -33
-117 -68 -135 -146 -259 -213 -337 -52 -61 -58 -65 -98 -65 -42 0 -46 -4 -33
-37 5 -12 -4 -24 -32 -42 -65 -43 -150 -68 -238 -69 -77 -1 -185 17 -185 32 0
4 41 40 91 81 50 41 138 123 194 182 263 274 429 570 497 883 25 118 34 369
16 485 l-13 85 -52 25 c-28 14 -61 34 -72 44 -20 18 -58 15 -46 -4 4 -6 -12
-10 -42 -10 -26 -1 -66 -7 -87 -15 -46 -16 -58 -11 -104 39 -33 36 -67 47 -75
24 -7 -22 4 -37 42 -58 20 -12 47 -36 60 -55 l23 -34 -37 -128 c-166 -568
-323 -889 -540 -1108 -44 -44 -122 -109 -173 -143 l-93 -62 -167 0 c-352 0
-667 47 -1037 152 -171 49 -588 204 -785 291 -80 36 -192 86 -250 112 -58 26
-166 72 -240 102 -74 30 -136 56 -138 58 -2 1 17 32 41 68 25 36 58 100 75
144 57 147 63 203 69 610 l6 371 66 28 c159 65 802 377 898 436 32 19 33 19
54 -1 31 -29 59 -36 75 -19 11 11 11 17 -1 41 -18 36 -9 45 109 104 50 25 116
63 148 85 48 34 59 38 78 28 11 -6 33 -10 48 -8 21 2 28 9 30 30 2 15 -2 36
-8 47 -8 16 -7 27 6 47 l17 25 89 -88 c48 -48 88 -93 88 -99z m-3886 30 c-34
-147 -13 -309 55 -416 72 -114 163 -186 421 -338 204 -119 280 -171 363 -249
l60 -57 -99 -41 c-54 -22 -238 -100 -409 -173 -170 -73 -501 -211 -735 -306
-234 -96 -440 -181 -457 -189 -26 -12 -33 -12 -33 -2 0 19 52 199 104 362 25
77 43 141 41 144 -10 9 -517 -87 -1020 -194 -215 -45 -565 -102 -565 -92 0 9
190 131 311 200 63 35 267 141 454 235 520 260 582 307 869 647 289 343 405
445 586 518 36 14 66 24 68 23 1 -2 -5 -34 -14 -72z m-4147 -414 c70 -42 69
-95 -6 -280 -62 -155 -76 -227 -61 -312 41 -222 162 -456 511 -989 146 -222
179 -278 167 -279 -258 -15 -371 -30 -648 -86 -69 -14 -147 -29 -175 -34 -27
-5 -70 -14 -95 -20 -25 -6 -58 -12 -75 -12 -16 0 -38 -5 -47 -10 -11 -5 -18
-5 -18 1 0 24 95 661 130 874 34 204 43 241 61 256 19 15 20 19 6 33 -14 13
-11 37 28 234 58 289 70 345 111 503 19 73 34 135 34 137 0 11 49 1 77 -16z
m9230 -56 c-3 -3 -12 -4 -19 -1 -8 3 -5 6 6 6 11 1 17 -2 13 -5z m83 -149 c0
-20 -18 -38 -33 -32 -22 8 -10 43 14 43 10 0 19 -5 19 -11z m-3140 -447 c0
-327 -7 -410 -40 -508 -23 -67 -78 -166 -121 -215 l-30 -33 -86 29 c-246 83
-747 179 -934 179 -46 0 -49 -2 -117 -75 -75 -81 -196 -254 -261 -376 l-41
-76 -53 -7 c-28 -3 -69 -6 -90 -6 -35 0 -37 1 -26 21 27 51 -54 53 -86 2 l-20
-32 -522 -1 c-492 0 -523 1 -523 18 0 19 35 171 41 177 2 2 27 12 54 23 53 20
694 285 975 402 91 38 352 148 580 245 228 97 552 234 720 305 168 70 364 153
435 183 72 31 133 56 138 56 4 1 7 -140 7 -311z m4655 -26 c310 -183 605 -399
605 -441 0 -5 21 -17 46 -27 32 -12 53 -29 70 -56 13 -21 28 -38 32 -38 4 0
15 -18 26 -40 10 -21 52 -70 94 -107 41 -37 86 -78 100 -91 13 -13 34 -27 46
-32 22 -8 52 -47 100 -133 18 -31 46 -60 79 -82 54 -35 101 -85 208 -221 34
-44 94 -115 133 -159 52 -59 60 -71 30 -45 -372 313 -444 370 -634 499 -116
79 -210 164 -210 191 0 11 -124 89 -162 102 -37 13 -108 67 -108 83 0 6 -18
30 -40 54 -39 41 -49 61 -32 61 11 0 69 -72 83 -104 12 -27 60 -49 84 -40 32
13 3 69 -47 95 -22 11 -41 26 -45 34 -3 8 -11 15 -18 15 -7 0 -17 25 -24 60
-9 45 -18 64 -37 76 -13 9 -43 35 -67 58 -85 83 -118 107 -137 101 -10 -3 -35
1 -55 10 -21 8 -46 15 -56 15 -11 0 -30 17 -45 39 -14 22 -49 55 -79 75 -29
19 -68 53 -86 76 -18 22 -47 49 -65 59 -18 11 -38 29 -44 42 -11 19 -2 16 66
-21 44 -23 129 -72 189 -108z m1563 -1146 c166 -131 218 -178 130 -118 -24 16
-74 45 -113 63 -73 36 -176 123 -201 170 -17 34 -18 45 -1 32 6 -6 90 -72 185
-147z m-7975 -168 c-67 -152 -162 -390 -233 -588 -39 -106 -71 -180 -83 -189
-14 -10 -18 -22 -14 -45 3 -22 -8 -72 -37 -156 -36 -106 -46 -125 -66 -131
l-25 -7 24 -1 c18 -1 22 -5 16 -18 -11 -30 -129 -415 -210 -690 -43 -145 -81
-263 -85 -263 -4 0 -28 93 -55 208 -60 260 -66 359 -36 607 11 94 23 181 26
195 40 215 57 502 36 624 -42 242 -199 355 -421 303 -36 -9 -67 -13 -69 -11
-6 6 -2 158 5 211 l6 43 627 3 c344 1 629 3 633 5 4 1 -14 -44 -39 -100z
m-3685 -48 c10 -28 8 -34 -45 -90 -70 -76 -146 -114 -343 -170 -211 -61 -284
-98 -394 -199 -77 -72 -156 -199 -206 -334 -18 -47 -25 -55 -75 -80 -31 -15
-60 -27 -65 -27 -5 0 -43 20 -84 45 -74 45 -74 45 -69 83 3 20 21 167 41 326
28 220 41 291 52 297 13 6 327 69 370 74 41 4 107 18 120 25 33 17 334 61 470
69 238 13 217 15 228 -19z m12003 -126 c7 -14 26 -35 42 -46 15 -11 46 -45 69
-76 38 -52 85 -99 130 -131 14 -9 23 -10 30 -3 12 12 -26 85 -62 117 -12 11
-28 32 -36 47 -8 16 -20 28 -28 28 -13 0 -116 93 -116 105 0 9 14 -1 123 -82
114 -86 151 -136 153 -205 1 -27 2 -52 3 -57 0 -4 28 -23 61 -40 50 -27 60
-37 66 -66 4 -25 26 -53 85 -108 43 -42 79 -80 79 -86 0 -6 -11 -13 -24 -17
-19 -4 -36 7 -99 69 -41 41 -82 89 -91 106 -20 38 -48 55 -64 39 -18 -18 -16
-23 37 -75 53 -52 73 -99 50 -114 -27 -17 -48 -9 -75 29 -15 20 -42 53 -60 72
-18 19 -37 47 -43 62 -6 15 -25 35 -43 44 -29 15 -74 59 -166 159 -15 17 -45
49 -66 72 -37 40 -39 43 -23 61 23 25 22 93 -2 142 l-19 39 38 -30 c20 -17 43
-41 51 -55z m714 -436 c85 -61 155 -135 155 -164 0 -14 10 -44 22 -66 21 -36
21 -41 7 -66 -10 -19 -24 -28 -48 -30 -27 -3 -38 3 -64 34 -18 20 -45 51 -60
67 -25 26 -27 33 -17 52 20 37 3 81 -46 123 -43 36 -45 40 -33 66 14 31 21 29
84 -16z m343 -172 c26 -13 171 -76 322 -141 151 -64 286 -124 300 -133 14 -9
29 -15 33 -14 4 1 22 -5 39 -14 l31 -16 -29 -19 c-16 -10 -33 -19 -38 -19 -5
0 -29 -17 -54 -37 -51 -42 -68 -48 -76 -26 -3 8 -10 12 -15 8 -6 -3 -17 5 -26
19 -9 13 -26 27 -38 30 -20 5 -53 35 -145 128 -35 37 -88 61 -133 62 -42 1
-62 15 -79 56 -8 20 -22 32 -39 36 -50 10 -71 24 -91 56 -34 55 -29 58 38 24z
m168 -328 c8 -16 13 -32 11 -35 -10 -9 -87 70 -87 89 0 19 1 19 30 -2 17 -12
37 -35 46 -52z m-14336 -38 c19 -16 22 -26 17 -57 -56 -385 -68 -493 -55 -493
42 0 136 92 235 230 103 142 166 182 231 145 15 -8 63 -30 107 -49 95 -40 176
-80 226 -109 20 -12 58 -35 85 -51 162 -97 198 -117 279 -159 50 -25 112 -53
139 -62 27 -9 56 -23 63 -31 8 -8 23 -14 33 -14 21 0 67 -18 90 -35 24 -18
121 -55 145 -55 12 0 39 -17 61 -37 21 -21 33 -30 26 -21 -12 15 -10 15 35 1
26 -8 66 -19 88 -23 76 -14 740 -276 802 -316 12 -8 28 -14 35 -14 7 0 143
-55 303 -121 159 -67 439 -174 620 -239 304 -109 555 -203 575 -215 7 -5 -45
-216 -223 -905 l-52 -204 -94 -16 c-54 -10 -96 -22 -102 -31 -7 -11 -65 -188
-133 -400 l-11 -37 -80 28 c-44 15 -177 75 -295 132 -118 58 -232 108 -252
112 -25 5 -46 18 -65 40 -33 39 -66 57 -146 80 -35 10 -73 30 -95 51 -21 18
-63 44 -93 58 -33 14 -65 37 -78 56 -15 21 -38 35 -73 46 -48 14 -84 14 -39 0
32 -10 51 -34 51 -65 0 -69 220 -199 580 -345 230 -93 372 -164 465 -235 44
-34 81 -65 83 -70 4 -12 -63 -257 -135 -494 -69 -229 -129 -387 -209 -554
l-64 -133 -43 6 c-23 3 -269 32 -547 65 -278 32 -764 97 -1081 144 -317 48
-580 86 -586 86 -22 0 -146 294 -224 534 -76 231 -200 750 -183 766 5 4 92 19
194 34 102 15 253 38 335 51 83 14 166 27 185 29 19 2 67 12 107 21 39 9 77
15 85 14 7 -1 24 3 38 9 14 6 156 32 315 57 160 25 350 61 424 81 74 19 141
32 148 30 8 -3 12 -2 9 3 -11 18 194 66 427 101 276 42 387 99 387 200 0 75
-69 100 -279 100 -69 0 -162 4 -206 10 -44 5 -152 14 -240 20 -261 18 -455 51
-455 76 0 8 -2 14 -4 14 -2 0 -12 3 -20 6 -12 5 -15 2 -10 -11 6 -14 3 -16
-12 -11 -54 16 -201 46 -299 61 -60 9 -126 21 -145 28 -23 7 -121 11 -277 12
-133 0 -245 3 -249 8 -4 4 -26 7 -48 7 -23 0 -106 14 -186 31 -209 44 -299 59
-347 59 -50 0 -43 -26 -78 278 l-24 213 -60 64 c-177 189 -277 433 -322 785
-13 97 -19 553 -8 564 4 4 17 9 29 11 13 2 30 11 39 18 16 15 91 56 102 57 3
0 16 -9 29 -20z m1725 -81 c495 -23 925 -103 1365 -254 74 -26 164 -62 200
-81 86 -45 194 -137 298 -254 47 -52 124 -138 171 -189 47 -52 85 -99 83 -103
-1 -4 4 -8 12 -8 7 0 31 -14 52 -31 85 -68 198 -110 332 -124 l63 -7 -6 -32
c-4 -17 -15 -60 -25 -96 -10 -36 -31 -116 -47 -177 -22 -89 -31 -113 -45 -113
-53 0 -812 272 -1143 410 -608 253 -687 285 -820 337 -77 30 -196 75 -265 100
-69 25 -126 49 -128 54 -2 5 -10 9 -18 9 -10 0 -12 5 -8 13 6 9 5 9 -7 1 -11
-9 -40 -2 -132 32 -65 24 -125 51 -134 59 -8 8 -20 15 -26 15 -39 0 -391 163
-432 200 -11 10 -60 39 -109 64 -49 25 -96 52 -106 61 -9 8 -23 15 -31 15 -8
0 -20 5 -26 11 -6 6 -33 21 -59 34 l-49 22 85 7 c390 33 635 40 955 25z
m10509 -189 c159 -15 315 -48 350 -73 21 -15 46 -22 81 -22 54 -1 78 -12 139
-62 43 -36 70 -42 83 -18 10 16 -6 22 188 -69 130 -61 320 -171 355 -206 16
-15 37 -34 47 -41 10 -8 31 -29 46 -47 15 -19 27 -30 27 -27 0 4 11 0 25 -9
14 -9 25 -12 25 -6 0 5 4 10 10 10 5 0 7 -7 4 -15 -4 -11 -21 -14 -64 -12 -32
1 -56 6 -53 10 9 14 -32 -10 -47 -28 -11 -13 -11 -18 0 -28 10 -9 11 -9 6 1
-10 17 23 50 34 33 5 -10 9 -10 14 -2 4 6 12 9 17 6 19 -12 8 -44 -22 -65 -29
-22 -31 -22 -44 -4 -7 11 -19 19 -27 19 -7 1 -12 6 -11 12 2 7 -7 9 -25 4 -22
-6 -41 2 -107 44 -44 28 -127 77 -185 109 -58 33 -121 69 -140 81 -19 11 -98
52 -175 89 l-141 67 -2 46 c-3 67 -23 93 -73 93 -31 0 -47 -6 -67 -27 l-27
-28 -180 83 c-98 46 -181 85 -184 87 -6 7 -1 6 123 -5z m-11724 -1906 c245
-56 304 -63 551 -63 133 0 227 -5 245 -11 16 -6 48 -9 70 -5 53 8 183 -13 426
-69 106 -25 211 -47 233 -51 77 -12 84 -15 87 -37 2 -12 9 -23 17 -26 10 -3
12 2 7 22 -4 18 -2 26 6 26 42 -1 440 -39 444 -43 2 -2 -31 -9 -73 -15 -43 -6
-186 -41 -318 -77 -176 -49 -304 -77 -480 -106 -132 -21 -252 -41 -266 -43
-15 -3 -36 2 -49 11 -13 9 -20 12 -17 6 9 -14 -35 -4 -44 9 -3 6 -9 3 -12 -6
-4 -11 -1 -16 11 -17 35 -1 -75 -30 -128 -33 -30 -2 -82 -8 -115 -14 -33 -6
-73 -13 -90 -16 -16 -2 -167 -27 -334 -56 -167 -28 -304 -50 -306 -48 -6 7
-105 667 -105 698 0 10 111 -7 240 -36z m458 -2337 c29 -60 89 -71 127 -23
l22 27 439 -65 c241 -36 660 -91 931 -123 l491 -58 -21 -30 c-37 -53 -170
-180 -232 -222 -194 -130 -388 -186 -650 -186 -340 0 -629 115 -872 346 -94
89 -167 175 -134 158 30 -16 51 -7 51 22 0 33 -35 64 -54 48 -8 -7 -16 -22
-18 -34 -3 -19 -9 -14 -44 33 -22 30 -53 74 -68 98 l-27 44 23 -4 c13 -2 28
-15 36 -31z m8253 -1242 c20 -5 25 -12 22 -26 -3 -10 -9 -19 -13 -19 -42 0
-370 -37 -535 -60 -115 -17 -211 -30 -212 -30 -2 0 -3 -25 -3 -55 l0 -55 -182
0 c-211 0 -209 -4 -30 86 135 67 317 128 458 154 90 16 140 19 289 15 99 -2
192 -7 206 -10z m837 -322 c-30 -137 -23 -153 121 -262 93 -71 129 -111 223
-251 85 -126 193 -266 210 -274 10 -5 10 -7 0 -12 -17 -8 -92 -87 -92 -97 0
-5 5 -5 10 -2 6 3 10 1 10 -5 0 -6 -6 -10 -12 -8 -7 1 -70 -2 -140 -6 -121 -7
-129 -6 -154 13 -34 26 -54 27 -54 1 0 -18 -7 -20 -65 -20 -58 0 -65 2 -65 20
0 22 -30 45 -72 55 -18 5 -28 3 -28 -4 0 -6 -7 -11 -15 -11 -8 0 -15 -7 -15
-15 0 -25 -36 -35 -127 -35 -73 0 -482 29 -490 35 -7 5 -94 373 -99 418 -3 31
0 70 8 96 13 42 16 46 63 58 28 6 107 32 177 57 97 35 161 50 273 66 156 22
216 33 260 50 l28 11 -6 99 c-7 107 -7 106 49 109 l22 1 -20 -87z m550 -44
c-3 -9 -12 0 -22 21 l-18 35 22 -21 c12 -12 20 -28 18 -35z m213 -176 c81 -85
164 -199 129 -178 -6 3 -7 -1 -4 -9 3 -9 10 -13 15 -10 15 9 10 -3 -7 -16 -12
-11 -15 -11 -12 0 2 7 -3 15 -9 17 -7 3 -13 -2 -13 -11 0 -9 -4 -16 -10 -16
-5 0 -10 -7 -10 -15 0 -8 -6 -15 -13 -15 -7 0 -21 -12 -32 -27 -11 -15 -28
-34 -37 -42 -21 -18 -24 -42 -5 -37 6 1 9 1 4 -1 -4 -3 -4 -10 -1 -16 5 -8 2
-8 -7 1 -16 15 -33 16 -23 1 4 -8 0 -8 -15 0 -29 16 -67 76 -91 143 -34 97
-71 304 -60 334 6 14 10 37 10 51 0 23 6 19 78 -45 42 -39 93 -88 113 -109z
m-2341 126 c0 -29 54 -48 189 -65 64 -9 152 -23 196 -34 94 -21 221 -78 207
-92 -6 -6 -24 -2 -48 10 -59 30 -214 80 -289 93 -36 6 -116 10 -178 8 -111 -4
-113 -5 -207 -51 -52 -26 -135 -78 -185 -115 -106 -79 -273 -244 -330 -326
-22 -31 -43 -57 -48 -57 -4 0 -84 38 -177 85 l-171 85 32 47 c86 124 187 234
318 346 l84 72 266 5 c146 3 283 7 304 8 31 2 37 -1 37 -19z m2456 -381 c0
-10 -1 -18 -3 -18 -1 0 -7 8 -12 18 -7 13 -6 19 2 19 7 0 13 -9 13 -19z
m-3503 -310 c-48 -10 -102 -17 -120 -16 l-32 3 35 57 35 57 85 -42 85 -42 -88
-17z m3201 -36 c2 -4 -5 -9 -17 -9 -17 -2 -19 0 -7 7 18 12 18 12 24 2z
m-3397 -148 c-3 -3 -12 -4 -19 -1 -8 3 -5 6 6 6 11 1 17 -2 13 -5z m503 -28
c0 -19 3 -42 7 -52 4 -12 2 -15 -8 -12 -13 4 -31 83 -21 93 14 13 22 2 22 -29z
m-588 -122 c4 -3 -6 -33 -22 -67 -31 -69 -90 -251 -90 -279 0 -10 -5 -18 -11
-18 -15 0 -6 47 36 185 51 165 67 200 87 179z m3012 -29 c16 -12 17 -18 8 -27
-27 -27 5 -73 38 -53 14 9 13 38 -2 53 -10 10 -8 14 10 18 12 4 22 10 22 15 0
5 16 9 35 9 19 0 35 -4 35 -9 0 -5 -22 -32 -50 -60 -55 -57 -55 -57 -38 -67 7
-5 8 -3 3 5 -6 10 -3 11 14 2 11 -7 21 -14 21 -17 0 -3 -4 -2 -10 1 -5 3 -19
1 -31 -6 -15 -8 -19 -8 -15 0 4 6 3 11 -3 11 -6 0 -13 -11 -17 -25 -3 -14 -10
-22 -15 -19 -5 3 -9 1 -9 -5 0 -5 5 -11 12 -13 9 -3 9 -6 0 -11 -7 -5 -15 7
-23 35 -32 120 -40 138 -61 138 -11 0 -36 -13 -55 -30 -18 -16 -40 -30 -49
-30 -20 0 -29 27 -18 59 10 27 20 29 159 39 11 1 29 -5 39 -13z m-337 -79 l3
-74 -123 40 c-67 22 -160 48 -207 58 l-84 17 164 12 c91 7 176 13 190 15 14 2
32 4 40 5 12 1 15 -14 17 -73z m-532 24 c-3 -5 -13 -10 -21 -10 -8 0 -14 5
-14 10 0 6 9 10 21 10 11 0 17 -4 14 -10z m979 -51 c-5 -9 -44 6 -44 17 0 3 5
2 10 -1 6 -3 10 -1 10 6 0 8 4 8 15 -1 8 -7 12 -16 9 -21z m-2476 -31 c6 -21
7 -38 2 -38 -4 0 -10 12 -13 28 -3 15 -9 36 -13 47 -5 14 -4 17 4 10 5 -5 15
-27 20 -47z m1242 -118 c0 -5 -5 -10 -11 -10 -5 0 -7 5 -4 10 3 6 8 10 11 10
2 0 4 -4 4 -10z m-1168 -112 l14 -43 200 -51 c109 -28 251 -68 314 -89 140
-45 222 -55 270 -30 18 9 74 57 125 106 51 49 95 89 99 89 4 0 -23 -35 -60
-77 -36 -43 -83 -104 -105 -136 -35 -53 -38 -63 -33 -105 11 -91 46 -288 65
-370 10 -45 19 -86 19 -90 0 -12 -201 4 -405 32 -104 14 -287 37 -405 51 -332
39 -422 55 -414 74 3 9 16 45 29 81 39 115 67 172 143 298 80 132 102 189 102
259 0 57 24 58 42 1z m2062 -19 l25 -19 -29 -31 c-27 -30 -30 -31 -64 -19 -33
11 -36 15 -36 50 0 39 0 39 40 38 24 0 50 -8 64 -19z m21 -69 c-17 -19 -41
-18 -29 1 3 5 9 7 14 4 5 -3 11 -1 15 5 3 5 9 10 12 10 3 0 -2 -9 -12 -20z
m-2875 -96 c59 -160 143 -405 138 -409 -5 -6 -229 32 -237 41 -3 3 -6 92 -6
198 0 211 4 226 56 226 24 0 30 -6 49 -56z m83 -563 c89 -15 111 -22 124 -41
15 -21 21 -22 107 -17 58 3 120 0 171 -9 44 -8 195 -28 335 -45 140 -16 352
-44 470 -60 118 -17 268 -33 333 -36 l117 -6 16 -54 c8 -29 14 -58 12 -64 -9
-28 -250 -117 -672 -249 -181 -57 -200 -61 -224 -49 -14 8 -69 57 -122 109
-74 73 -116 127 -185 235 -49 77 -101 156 -116 175 l-27 35 -100 -9 -100 -9
10 -31 c51 -163 145 -562 135 -572 -2 -2 -46 40 -98 93 -150 154 -238 299
-305 498 -41 123 -42 137 -11 130 12 -3 71 -14 130 -24z m1845 -483 c-2 -6
-12 -12 -21 -14 -9 -1 -15 2 -11 7 3 5 10 7 15 4 5 -4 9 -1 9 4 0 6 3 11 6 11
3 0 4 -5 2 -12z m-838 -288 c-37 -20 -70 -26 -70 -11 0 4 19 13 43 18 62 15
66 14 27 -7z"/>
<path d="M4782 23010 c-39 -37 -21 -69 32 -56 29 7 43 41 26 61 -17 20 -32 19
-58 -5z"/>
<path d="M4893 22981 c-38 -24 -83 -87 -83 -118 0 -55 88 -53 151 4 47 42 54
91 17 117 -29 21 -46 20 -85 -3z"/>
<path d="M4337 22970 c-14 -11 -40 -38 -57 -60 -25 -31 -31 -46 -26 -66 7 -25
10 -26 54 -22 92 9 170 87 144 143 -9 20 -19 25 -50 25 -24 0 -49 -8 -65 -20z"/>
<path d="M4625 22931 c-39 -23 -85 -77 -85 -100 0 -43 49 -53 116 -22 67 30
94 89 58 125 -21 21 -52 20 -89 -3z"/>
<path d="M4935 22741 c-32 -19 -67 -51 -97 -92 -25 -35 -74 -91 -107 -124 -62
-61 -75 -91 -46 -115 22 -18 52 -7 121 44 41 31 78 49 115 57 67 14 96 29 130
66 38 40 49 66 49 112 0 31 -6 44 -26 60 -36 29 -80 26 -139 -8z"/>
<path d="M6050 21945 c-11 -13 -11 -19 4 -33 20 -20 51 -6 51 24 0 24 -37 30
-55 9z"/>
<path d="M7570 21945 c-7 -8 -9 -22 -6 -31 5 -13 9 -14 21 -4 17 14 20 36 6
44 -5 3 -14 -1 -21 -9z"/>
<path d="M7966 21651 c-20 -22 -15 -51 8 -51 18 0 33 47 19 61 -6 6 -16 2 -27
-10z"/>
<path d="M6295 21528 c-15 -12 -34 -37 -42 -56 -12 -30 -12 -37 2 -58 8 -13
23 -24 33 -24 31 0 78 37 96 74 16 34 16 39 2 62 -20 30 -54 31 -91 2z"/>
<path d="M12026 20020 c-48 -58 -61 -159 -25 -204 27 -35 61 -33 92 4 29 34
52 128 42 168 -16 66 -67 81 -109 32z"/>
<path d="M24287 20953 c-13 -13 -7 -43 13 -63 24 -24 50 -16 50 15 0 37 -42
69 -63 48z"/>
<path d="M13536 19755 c-48 -49 -19 -205 38 -205 8 0 24 9 37 19 32 26 34 116
4 157 -27 36 -60 48 -79 29z"/>
<path d="M14456 19678 c3 -5 10 -6 15 -3 13 9 11 12 -6 12 -8 0 -12 -4 -9 -9z"/>
<path d="M19680 19138 c0 -20 21 -38 43 -38 32 0 18 44 -15 48 -19 2 -28 -1
-28 -10z"/>
<path d="M12507 17933 c-11 -10 -8 -62 3 -84 19 -35 40 -23 40 24 0 50 -22 81
-43 60z"/>
<path d="M20388 18462 c-4 -15 -12 -18 -36 -14 -20 3 -37 -1 -47 -12 -9 -9
-21 -14 -26 -10 -5 3 -12 -2 -16 -12 -11 -29 31 -54 93 -54 43 0 55 4 64 20 6
11 15 18 20 15 15 -9 40 7 40 26 0 46 -82 82 -92 41z"/>
<path d="M20590 18352 c0 -23 19 -42 41 -42 21 0 29 19 17 43 -12 23 -58 23
-58 -1z"/>
<path d="M19973 18284 c-4 -11 1 -22 13 -31 27 -20 49 -12 49 17 0 20 -6 26
-28 28 -18 2 -29 -2 -34 -14z"/>
<path d="M20423 18283 c-19 -7 -16 -27 7 -48 23 -21 50 -13 50 14 0 16 -28 44
-42 40 -2 0 -9 -3 -15 -6z"/>
<path d="M20096 18221 c-15 -24 29 -62 54 -46 16 10 12 42 -6 49 -22 9 -42 7
-48 -3z"/>
<path d="M20286 18044 c-7 -19 36 -64 63 -64 22 0 43 30 33 47 -21 31 -86 43
-96 17z"/>
<path d="M20853 18045 c-7 -20 24 -55 48 -55 27 0 33 18 15 45 -18 28 -54 33
-63 10z"/>
<path d="M21100 17976 c0 -18 27 -29 36 -14 4 5 0 14 -7 19 -20 13 -29 11 -29
-5z"/>
<path d="M20920 17916 c0 -20 37 -63 59 -69 25 -6 45 16 37 41 -11 33 -96 59
-96 28z"/>
<path d="M21493 17794 c-4 -11 1 -22 12 -30 28 -21 37 -17 33 13 -3 32 -35 44
-45 17z"/>
<path d="M14602 17428 c-18 -18 -14 -58 12 -113 12 -28 28 -67 35 -87 16 -48
34 -63 51 -43 20 24 7 162 -19 213 -22 44 -54 55 -79 30z"/>
<path d="M20457 16619 c7 -7 15 -10 18 -7 3 3 -2 9 -12 12 -14 6 -15 5 -6 -5z"/>
<path d="M20231 16272 c-15 -27 -14 -32 4 -32 20 0 31 28 17 42 -7 7 -14 4
-21 -10z"/>
<path d="M20000 16075 c-10 -12 -9 -16 4 -21 16 -6 46 11 46 27 0 15 -37 10
-50 -6z"/>
<path d="M20281 15651 l-44 -6 44 -36 c42 -34 46 -35 87 -25 44 11 62 28 62
59 0 14 -9 17 -52 15 -29 0 -73 -4 -97 -7z"/>
<path d="M21684 16799 c-8 -13 13 -29 39 -29 21 0 14 15 -13 30 -13 7 -21 7
-26 -1z"/>
<path d="M21886 16303 c-25 -25 46 -107 87 -101 32 4 30 55 -3 78 -28 20 -74
33 -84 23z"/>
<path d="M20920 16211 c-22 -42 -3 -54 38 -25 18 13 21 19 11 30 -16 20 -36
17 -49 -5z"/>
<path d="M21860 16170 c0 -12 13 -28 33 -40 36 -22 46 -22 61 4 9 14 6 21 -13
37 -32 26 -81 26 -81 -1z"/>
<path d="M20897 15913 c-10 -9 -8 -43 2 -43 5 0 14 7 21 15 17 21 -4 48 -23
28z"/>
<path d="M22253 15774 c-8 -21 40 -69 61 -61 23 9 20 43 -6 61 -29 20 -47 20
-55 0z"/>
<path d="M22367 15783 c-20 -19 10 -63 44 -63 14 0 19 7 19 25 0 31 -44 58
-63 38z"/>
<path d="M22105 15760 c-9 -14 39 -75 78 -98 57 -35 94 37 39 77 -36 25 -106
38 -117 21z"/>
<path d="M21983 15735 c-8 -23 4 -44 32 -57 31 -14 50 0 41 30 -9 27 -65 47
-73 27z"/>
<path d="M21740 15668 c0 -19 12 -34 38 -47 47 -25 73 14 30 43 -27 19 -68 21
-68 4z"/>
<path d="M21937 15495 c-8 -19 19 -48 70 -75 42 -23 73 -22 73 3 0 14 -103 87
-124 87 -8 0 -16 -7 -19 -15z"/>
<path d="M21830 15381 c0 -22 35 -51 62 -51 25 0 24 46 -1 60 -32 17 -61 12
-61 -9z"/>
<path d="M21592 15348 c-7 -7 -12 -29 -12 -50 0 -29 6 -43 27 -61 61 -51 65
-57 58 -90 -4 -18 -15 -39 -25 -47 -24 -20 -42 -58 -34 -71 3 -6 19 -9 34 -7
16 1 36 -5 47 -14 14 -13 36 -16 113 -14 115 3 169 27 191 84 7 19 12 21 28
12 24 -12 51 -3 51 17 0 15 -47 79 -93 124 -44 43 -128 80 -199 87 -34 3 -76
13 -93 24 -34 21 -76 23 -93 6z"/>
<path d="M22135 15309 c-9 -14 21 -75 41 -83 28 -11 62 -6 68 9 9 25 -4 43
-48 65 -49 23 -53 24 -61 9z"/>
<path d="M22054 15188 c-9 -14 40 -58 66 -58 28 0 35 20 14 40 -25 23 -71 34
-80 18z"/>
<path d="M24349 15126 c16 -17 21 -31 16 -46 -12 -38 45 -81 59 -45 3 8 12 15
20 15 25 0 7 28 -42 66 -54 41 -88 47 -53 10z"/>
<path d="M22873 14693 c-4 -11 1 -22 16 -32 69 -49 75 -58 74 -100 -2 -36 2
-44 23 -53 13 -6 40 -33 59 -59 42 -58 102 -100 147 -102 27 -2 34 2 36 20 4
27 -47 85 -94 108 -30 14 -35 21 -30 41 8 30 -47 94 -102 119 -20 10 -48 27
-62 40 -36 32 -59 38 -67 18z"/>
<path d="M23140 14671 c0 -11 26 -22 34 -14 3 3 3 10 0 14 -7 12 -34 11 -34 0z"/>
<path d="M23540 13822 c0 -5 9 -17 20 -27 26 -23 52 -6 30 20 -13 16 -50 21
-50 7z"/>
<path d="M14396 15463 c-12 -12 -6 -43 9 -43 8 0 15 9 15 19 0 21 -13 34 -24
24z"/>
<path d="M14491 14190 c0 -33 1 -34 11 -12 8 17 8 26 0 34 -9 9 -12 4 -11 -22z"/>
<path d="M18543 13572 c-19 -16 -36 -43 -42 -67 l-10 -40 24 30 c13 17 36 44
50 61 41 52 30 60 -22 16z"/>
<path d="M18577 13293 c-4 -3 -7 -15 -7 -25 0 -13 8 -18 30 -18 31 0 39 17 18
38 -13 13 -31 16 -41 5z"/>
<path d="M28880 12545 c-7 -8 -18 -15 -26 -15 -16 0 -27 -17 -16 -24 5 -3 22
8 37 24 16 17 26 30 23 30 -3 0 -11 -7 -18 -15z"/>
<path d="M28946 12551 c8 -9 44 -11 44 -3 0 4 -11 8 -25 8 -13 0 -22 -2 -19
-5z"/>
<path d="M28875 12494 c-21 -18 -31 -21 -36 -12 -5 7 -17 14 -28 14 -11 1 -18
-2 -15 -7 2 -4 11 -6 18 -3 7 3 16 -2 20 -11 4 -12 10 -13 23 -6 31 18 57 41
52 45 -3 3 -18 -6 -34 -20z"/>
<path d="M15760 11696 c0 -2 7 -7 16 -10 8 -3 12 -2 9 4 -6 10 -25 14 -25 6z"/>
<path d="M15850 11666 c0 -2 7 -7 16 -10 8 -3 12 -2 9 4 -6 10 -25 14 -25 6z"/>
<path d="M16024 11617 c-6 -17 2 -37 16 -37 5 0 7 10 5 21 -6 29 -13 35 -21
16z"/>
<path d="M15786 11562 c-3 -5 1 -9 9 -9 8 0 12 4 9 9 -3 4 -7 8 -9 8 -2 0 -6
-4 -9 -8z"/>
<path d="M16140 11470 c-13 -8 -13 -10 2 -10 9 0 20 5 23 10 8 13 -5 13 -25 0z"/>
<path d="M15998 11451 c-26 -4 -51 -11 -55 -15 -12 -13 108 1 120 13 12 12 10
12 -65 2z"/>
<path d="M16252 11440 c-12 -5 -27 -21 -33 -34 -24 -53 46 -105 100 -75 39 22
39 60 1 93 -35 29 -35 29 -68 16z"/>
<path d="M15840 11360 c13 -8 8 -14 -10 -12 -3 0 -6 -8 -6 -18 0 -13 4 -16 12
-10 6 6 14 7 18 3 4 -4 4 1 0 11 -5 13 -4 17 4 12 8 -5 10 -2 6 8 -3 9 -14 16
-23 16 -14 0 -14 -2 -1 -10z"/>
<path d="M15903 11248 c-21 -28 -23 -37 -7 -52 12 -12 20 -13 35 -6 21 12 25
40 7 58 -15 15 -23 15 -35 0z"/>
<path d="M16914 11189 c-3 -6 -2 -15 4 -21 13 -13 32 -2 32 18 0 16 -26 19
-36 3z"/>
<path d="M16370 11085 c0 -21 5 -25 28 -25 38 0 46 9 25 32 -24 27 -53 23 -53
-7z"/>
<path d="M15964 11061 c9 -14 73 -31 114 -31 18 0 42 -5 53 -11 11 -6 25 -9
32 -6 7 2 -18 14 -54 26 -77 25 -154 37 -145 22z"/>
<path d="M16017 10963 c-13 -12 -7 -23 13 -23 11 0 20 7 20 15 0 15 -21 21
-33 8z"/>
<path d="M17274 10956 c-8 -21 13 -46 38 -46 30 0 21 54 -10 58 -13 2 -25 -3
-28 -12z"/>
<path d="M17445 10924 c-26 -26 -15 -58 21 -62 38 -4 59 18 50 53 -8 30 -45
34 -71 9z"/>
<path d="M15795 10889 c7 -22 7 -22 -9 -6 -10 9 -22 17 -27 17 -6 0 -3 -7 5
-16 9 -8 16 -17 16 -20 0 -7 -25 1 -32 11 -5 6 -8 5 -8 -3 0 -14 37 -31 60
-26 8 1 20 3 27 3 7 1 17 10 22 20 8 14 7 22 -6 32 -14 12 -16 12 -11 -2 4 -9
1 -16 -7 -16 -8 0 -13 5 -12 10 1 5 -4 12 -12 14 -10 4 -11 -1 -6 -18z"/>
<path d="M17599 10853 c-19 -49 -23 -77 -23 -178 0 -178 23 -268 175 -679 55
-149 102 -277 104 -283 7 -22 33 -3 84 61 97 123 134 231 133 391 -1 204 -91
420 -246 592 -50 55 -173 153 -193 153 -6 0 -22 -26 -34 -57z"/>
<path d="M16686 10791 c-9 -14 4 -18 82 -25 56 -5 83 4 49 17 -34 13 -125 18
-131 8z"/>
<path d="M17509 10736 c-13 -6 -24 -20 -24 -31 0 -16 7 -20 35 -20 30 0 35 3
38 26 4 32 -16 42 -49 25z"/>
<path d="M16432 10728 c-6 -6 -12 -17 -12 -24 0 -6 -7 -17 -15 -24 -24 -20
-18 -28 28 -35 23 -4 54 -14 69 -21 15 -8 41 -14 58 -14 48 0 31 24 -21 30
l-44 5 0 45 c0 41 -2 45 -25 48 -14 2 -31 -3 -38 -10z"/>
<path d="M16002 10668 c5 -15 28 -23 28 -10 0 5 -7 13 -16 16 -10 4 -14 1 -12
-6z"/>
<path d="M17430 10551 c0 -16 6 -21 26 -21 33 0 30 33 -4 38 -17 3 -22 -2 -22
-17z"/>
<path d="M17080 10505 c-9 -11 -10 -19 -3 -26 17 -17 48 -6 48 16 0 25 -28 31
-45 10z"/>
<path d="M17230 10485 c0 -8 9 -15 20 -15 11 0 20 7 20 15 0 8 -9 15 -20 15
-11 0 -20 -7 -20 -15z"/>
<path d="M16000 10475 c0 -9 5 -15 11 -13 6 2 11 8 11 13 0 5 -5 11 -11 13 -6
2 -11 -4 -11 -13z"/>
<path d="M16505 10395 c-14 -13 -25 -34 -25 -45 0 -29 44 -70 74 -70 86 0 126
93 56 130 -33 18 -79 12 -105 -15z"/>
<path d="M17214 10355 c-9 -23 3 -45 26 -45 23 0 27 29 8 48 -16 16 -27 15
-34 -3z"/>
<path d="M17551 10246 c-19 -23 -18 -67 2 -80 34 -21 75 52 45 82 -16 16 -33
15 -47 -2z"/>
<path d="M16140 9720 c0 -15 7 -20 25 -20 27 0 32 9 13 28 -18 18 -38 14 -38
-8z"/>
<path d="M15617 9586 c-7 -17 23 -46 46 -46 23 0 21 11 -7 38 -28 26 -32 27
-39 8z"/>
<path d="M15541 9479 c-17 -7 -21 -13 -14 -20 15 -15 47 -7 51 14 4 19 -2 20
-37 6z"/>
<path d="M16804 9436 c-9 -24 0 -51 19 -54 15 -3 18 2 15 29 -3 35 -24 51 -34
25z"/>
<path d="M15330 9383 c0 -6 9 -21 21 -34 l20 -24 -17 30 c-24 39 -24 40 -24
28z"/>
<path d="M15343 9324 c4 -5 -3 -14 -15 -21 l-23 -13 23 -6 c12 -3 22 -11 22
-16 0 -5 5 -6 12 -2 8 5 6 11 -5 19 -9 7 -14 15 -11 18 8 7 35 -19 38 -36 1
-6 5 -17 9 -24 4 -6 3 -14 -3 -18 -6 -4 -8 -12 -4 -18 3 -7 -1 -4 -10 6 -8 11
-12 26 -9 35 4 10 2 13 -5 8 -7 -4 -10 -17 -6 -33 5 -17 3 -24 -4 -19 -5 3 -9
17 -7 31 1 17 -4 29 -16 36 -17 8 -19 6 -19 -20 0 -17 7 -34 16 -39 9 -5 16
-13 16 -18 0 -5 4 -8 9 -7 4 2 6 -3 3 -11 -3 -7 2 -21 11 -30 9 -9 14 -16 10
-16 -8 0 31 -57 63 -92 25 -27 50 -39 37 -18 -3 6 1 7 9 4 22 -8 22 39 0 60
-8 9 -13 16 -10 16 3 0 -7 21 -23 48 -16 26 -33 61 -37 77 -9 41 -41 92 -61
100 -10 3 -14 3 -10 -1z m-10 -84 c3 -11 1 -20 -4 -20 -5 0 -9 9 -9 20 0 11 2
20 4 20 2 0 6 -9 9 -20z"/>
<path d="M15941 9237 c-13 -16 -5 -27 21 -27 11 0 18 7 18 20 0 23 -22 27 -39
7z"/>
<path d="M15178 9202 c9 -10 19 -17 21 -16 6 5 -20 34 -30 34 -5 0 -1 -8 9
-18z"/>
<path d="M15329 9041 c9 -17 8 -18 -12 -14 -12 3 -19 2 -14 -2 13 -14 50 -16
58 -4 11 18 -1 39 -22 39 -16 0 -18 -3 -10 -19z"/>
<path d="M15222 8960 c0 -14 2 -19 5 -12 2 6 2 18 0 25 -3 6 -5 1 -5 -13z"/>
<path d="M15174 8571 c-11 -25 -4 -74 14 -94 21 -23 68 -19 66 5 -1 10 2 15 7
12 5 -3 9 2 9 10 0 9 -8 16 -17 16 -14 0 -15 2 -5 9 12 7 12 12 1 30 -8 11
-16 21 -19 22 -36 6 -50 3 -56 -10z m13 -23 c-3 -8 -6 -5 -6 6 -1 11 2 17 5
13 3 -3 4 -12 1 -19z m0 -50 c-3 -8 -6 -5 -6 6 -1 11 2 17 5 13 3 -3 4 -12 1
-19z m46 -13 c-3 -9 -8 -14 -10 -11 -3 3 -2 9 2 15 9 16 15 13 8 -4z"/>
<path d="M15053 8485 c0 -8 4 -12 9 -9 5 3 6 10 3 15 -9 13 -12 11 -12 -6z"/>
<path d="M15085 8450 c-5 -9 -4 -11 3 -6 7 4 12 3 12 -3 0 -5 -5 -11 -12 -13
-8 -3 -6 -7 5 -11 22 -8 29 6 13 28 -10 14 -15 15 -21 5z"/>
<path d="M15335 8410 c-8 -13 3 -30 20 -30 14 0 27 24 18 34 -10 9 -31 7 -38
-4z"/>
<path d="M15080 8400 c-8 -5 -10 -10 -4 -10 6 0 11 -7 11 -15 0 -8 -5 -15 -11
-15 -6 0 -5 -5 2 -12 7 -7 12 -20 12 -31 0 -16 2 -17 15 -3 8 8 15 19 15 25 0
6 5 11 11 11 5 0 7 -5 3 -12 -4 -6 -3 -8 2 -5 6 3 11 -3 11 -14 1 -10 -3 -19
-8 -19 -6 0 -7 5 -4 10 3 6 2 10 -4 10 -16 0 -19 -13 -10 -38 5 -13 13 -21 18
-18 5 3 8 -2 7 -11 0 -9 5 -18 12 -21 11 -3 12 9 9 54 -3 32 -10 60 -16 62 -6
2 -9 7 -6 12 3 5 -4 11 -15 15 -11 4 -17 11 -14 17 4 6 2 8 -4 4 -5 -3 -12 -2
-14 4 -2 6 -8 6 -18 0z m38 -41 c-20 -13 -28 -11 -22 5 3 8 12 12 21 9 12 -5
12 -7 1 -14z"/>
<path d="M15346 8321 c-4 -7 -5 -15 -2 -18 9 -9 19 4 14 18 -4 11 -6 11 -12 0z"/>
<path d="M16329 12353 c-32 -39 -40 -72 -30 -125 2 -14 41 -19 62 -8 32 17 62
92 49 124 -12 31 -59 36 -81 9z"/>
<path d="M16444 12269 c-3 -6 -2 -15 4 -21 13 -13 32 -2 32 18 0 16 -26 19
-36 3z"/>
<path d="M16794 12117 c-7 -20 3 -37 22 -37 18 0 18 24 -1 40 -12 10 -16 9
-21 -3z"/>
<path d="M15906 12012 c-3 -5 1 -9 9 -9 8 0 12 4 9 9 -3 4 -7 8 -9 8 -2 0 -6
-4 -9 -8z"/>
<path d="M16345 12001 c-39 -16 -58 -49 -63 -109 -3 -31 -11 -66 -18 -78 -20
-30 -5 -38 23 -12 21 20 26 20 62 8 74 -24 141 17 141 87 0 47 -19 75 -64 97
-37 18 -51 19 -81 7z"/>
<path d="M16712 11981 c4 -13 18 -16 19 -4 0 4 -5 9 -11 12 -7 2 -11 -2 -8 -8z"/>
<path d="M16635 11906 c-27 -19 -13 -48 22 -44 22 2 29 9 31 31 3 21 -1 27
-15 27 -11 0 -28 -6 -38 -14z"/>
<path d="M16532 11778 c-16 -16 -15 -28 5 -51 19 -21 22 -16 -34 -55 -16 -12
-16 -12 7 -8 50 8 162 44 173 55 20 20 -3 24 -42 6 -45 -20 -66 -14 -51 15 18
33 -31 65 -58 38z"/>
<path d="M17060 11610 c-9 -16 -8 -22 5 -26 21 -8 39 10 32 30 -9 22 -24 20
-37 -4z"/>
<path d="M17318 11469 c-10 -5 -18 -19 -18 -29 0 -15 7 -20 29 -20 30 0 45 19
35 45 -7 17 -22 19 -46 4z"/>
<path d="M17784 11349 c-9 -16 18 -30 33 -17 7 6 13 14 13 19 0 13 -38 11 -46
-2z"/>
<path d="M26430 12211 c0 -12 59 -35 68 -27 4 4 -2 14 -12 22 -22 16 -56 19
-56 5z"/>
<path d="M26806 12006 c7 -19 48 -22 42 -3 -3 6 -14 13 -26 15 -16 3 -20 -1
-16 -12z"/>
<path d="M27046 11962 c-7 -12 32 -48 41 -38 8 8 -8 38 -24 43 -6 2 -14 0 -17
-5z"/>
<path d="M27347 11873 c-4 -3 -7 -12 -7 -19 0 -19 59 -104 72 -104 6 0 33 -14
59 -31 55 -35 92 -36 97 -2 4 26 -83 120 -135 146 -33 17 -74 22 -86 10z"/>
<path d="M27625 11599 c-4 -6 -5 -12 -2 -15 2 -3 7 2 10 11 7 17 1 20 -8 4z"/>
<path d="M15560 10205 c0 -5 74 -48 88 -51 9 -2 8 5 -5 19 l-18 22 25 -21 c14
-12 35 -25 48 -29 12 -3 22 -11 22 -16 0 -5 7 -9 16 -9 14 0 12 6 -8 33 -36
46 -67 60 -95 42 -12 -8 -23 -10 -25 -5 -3 9 -48 23 -48 15z"/>
<path d="M15497 10102 c5 -10 8 -11 13 -2 5 7 13 9 20 5 8 -5 11 -4 6 3 -10
16 -45 11 -39 -6z"/>
<path d="M15815 10080 c3 -5 11 -10 16 -10 6 0 7 5 4 10 -3 6 -11 10 -16 10
-6 0 -7 -4 -4 -10z"/>
<path d="M15609 10016 c-13 -7 -23 -18 -21 -24 1 -7 -2 -12 -8 -12 -15 0 -12
-72 4 -92 40 -53 132 26 110 95 -3 9 -18 24 -33 31 -22 12 -32 12 -52 2z"/>
<path d="M15780 9950 c-17 -17 -19 -24 -9 -36 17 -21 53 -13 57 12 2 11 -4 26
-12 33 -12 10 -19 8 -36 -9z"/>
<path d="M15597 7783 c-17 -17 -6 -34 20 -31 36 4 45 38 10 38 -13 0 -27 -3
-30 -7z"/>
<path d="M24455 5707 c-9 -35 10 -67 41 -67 33 0 41 26 17 58 -27 36 -51 40
-58 9z"/>
<path d="M24244 5675 c-7 -18 3 -35 21 -35 18 0 26 15 19 34 -8 20 -33 21 -40
1z"/>
<path d="M22772 3798 c2 -12 11 -24 21 -26 14 -3 18 1 15 20 -2 12 -11 24 -21
26 -14 3 -18 -1 -15 -20z"/>
<path d="M1630 27006 c-18 -22 -5 -48 22 -44 17 2 23 10 23 28 0 29 -26 38
-45 16z"/>
<path d="M2193 26495 c-91 -39 -52 -142 44 -116 20 6 44 18 54 27 26 24 24 69
-3 88 -27 19 -53 20 -95 1z"/>
<path d="M2235 26164 c-16 -8 -37 -22 -46 -30 -54 -49 -7 -105 71 -84 66 18
93 83 48 114 -28 20 -36 20 -73 0z"/>
<path d="M2354 26129 c-10 -17 23 -46 37 -32 7 7 9 19 6 27 -7 18 -33 21 -43
5z"/>
<path d="M2411 26042 c-49 -25 -76 -64 -62 -90 6 -11 24 -23 41 -27 92 -20
167 58 110 115 -25 25 -45 25 -89 2z"/>
<path d="M2210 25959 c-93 -37 -154 -203 -99 -273 16 -20 29 -26 60 -26 73 0
149 55 149 107 0 12 8 38 17 58 16 34 16 37 -2 72 -30 55 -80 80 -125 62z"/>
<path d="M2460 25218 c-32 -17 -70 -74 -70 -105 0 -62 59 -111 117 -99 80 18
125 75 98 124 -42 77 -95 106 -145 80z"/>
<path d="M2874 24951 c-41 -25 -64 -59 -64 -93 0 -28 23 -58 43 -58 7 0 27
-13 45 -30 37 -33 47 -35 105 -18 56 17 107 67 107 105 0 39 -23 58 -73 59
-31 0 -44 6 -59 27 -24 32 -60 35 -104 8z"/>
<path d="M2562 24890 c-40 -25 -71 -84 -56 -108 15 -24 49 -26 99 -8 52 20 78
47 78 81 0 56 -59 73 -121 35z"/>
<path d="M3656 24704 c-18 -18 -20 -53 -6 -106 12 -41 57 -101 70 -93 5 3 10
0 12 -7 3 -7 12 -9 22 -5 10 4 14 12 10 18 -4 8 -3 9 5 5 6 -4 18 -2 27 4 12
10 12 16 2 28 -10 13 -10 14 0 8 17 -10 15 19 -4 60 -18 38 -87 104 -108 104
-8 0 -22 -7 -30 -16z"/>
<path d="M3213 24699 c-39 -11 -100 -70 -109 -104 -14 -55 14 -74 82 -55 67
19 124 64 124 98 0 15 -4 32 -8 38 -7 10 -47 35 -54 33 -2 0 -18 -5 -35 -10z"/>
<path d="M3560 24248 c-30 -15 -52 -36 -65 -61 l-20 -38 24 -18 c22 -17 23
-20 10 -54 -16 -45 -1 -67 47 -67 44 0 112 28 124 51 13 23 13 66 0 74 -5 3
-7 12 -3 20 3 10 -1 15 -12 15 -11 0 -15 5 -11 15 3 8 9 21 12 29 6 16 -29 56
-49 56 -7 0 -33 -10 -57 -22z"/>
<path d="M3935 24096 c-101 -32 -165 -88 -165 -142 0 -41 21 -54 89 -54 109 0
211 65 211 134 0 60 -60 87 -135 62z"/>
<path d="M3255 24006 c-70 -42 -83 -96 -29 -116 59 -23 163 43 148 94 -15 50
-58 58 -119 22z"/>
<path d="M4029 23802 c-50 -32 -76 -60 -79 -82 -9 -63 42 -71 152 -23 41 17
52 38 42 77 -6 26 -38 56 -59 56 -6 0 -31 -13 -56 -28z"/>
</g>
</svg>
